<svg height="512pt" viewBox="0 0 512 512" width="512pt" xmlns="http://www.w3.org/2000/svg"><path d="m271 341.257812v-100.433593h-30v100.433593h-206.394531v130.429688h30v-100.429688h176.394531v100.429688h30v-100.429688h176.398438v100.429688h30v-130.429688zm0 0" fill="#0b799d"/><path d="m416.769531 135.796875c-1.90625-45.296875-39.214843-81.4375-84.976562-81.4375-14.449219 0-28.046875 3.613281-39.964844 9.96875-8.039063-17.382813-20.457031-32.316406-35.828125-43.414063l-18.210938 141.945313 18.210938 118.28125h160.238281c40.140625 0 72.679688-32.539063 72.679688-72.679687 0-39.960938-32.253907-72.378907-72.148438-72.664063zm0 0" fill="#efe2dd"/><path d="m191.242188 0c-61.175782 0-110.765626 49.59375-110.765626 110.769531 0 8.972657 1.074219 17.695313 3.085938 26.050781-34.328125 5.804688-60.480469 35.660157-60.480469 71.640626 0 40.140624 32.539063 72.679687 72.675781 72.679687h160.242188v-260.226563c-18.214844-13.152343-40.574219-20.914062-64.757812-20.914062zm0 0" fill="#fff5f5"/><path d="m256 412.792969-20.015625 49.601562 20.015625 49.605469c27.351562 0 49.601562-22.253906 49.601562-49.601562 0-27.351563-22.25-49.605469-49.601562-49.605469zm0 0" fill="#87a0af"/><path d="m206.398438 462.398438c0 27.347656 22.25 49.601562 49.601562 49.601562v-99.207031c-27.351562 0-49.601562 22.253906-49.601562 49.605469zm0 0" fill="#b4d2d7"/><path d="m462.398438 412.792969c-27.351563 0-49.605469 22.253906-49.605469 49.601562 0 27.351563 22.253906 49.605469 49.605469 49.605469 27.347656 0 49.601562-22.253906 49.601562-49.601562 0-27.351563-22.253906-49.605469-49.601562-49.605469zm0 0" fill="#87a0af"/><path d="m49.601562 412.792969c-27.347656 0-49.601562 22.253906-49.601562 49.605469 0 27.351562 22.253906 49.601562 49.601562 49.601562 27.351563 0 49.605469-22.253906 49.605469-49.601562 0-27.351563-22.253906-49.605469-49.605469-49.605469zm0 0" fill="#b4d2d7"/></svg>