<svg height="512pt" viewBox="-54 0 512 512.00001" width="512pt" xmlns="http://www.w3.org/2000/svg"><path d="m404.871094 417.898438v94.097656h-404.871094v-94.097656c0-48.015626 39.066406-87.089844 87.089844-87.089844h57.390625v-10.496094c-40.972657-20.109375-69.070313-60.84375-69.070313-107.71875v-91.519531c0-66.761719 56.984375-121.074219 127.023438-121.074219 70.042968 0 127.027344 54.3125 127.027344 121.074219v91.519531c0 46.875-28.097657 87.609375-69.074219 107.71875v10.496094h57.394531c48.023438 0 87.089844 39.074218 87.089844 87.089844zm0 0" fill="#2f5897"/><path d="m404.871094 417.898438v94.097656h-202.4375v-511.996094c70.042968 0 127.027344 54.3125 127.027344 121.074219v91.519531c0 46.875-28.097657 87.609375-69.074219 107.71875v10.496094h57.394531c48.023438 0 87.089844 39.074218 87.089844 87.089844zm0 0" fill="#183158"/><path d="m90.714844 433.722656h29.996094v78.277344h-29.996094zm0 0" fill="#d0fdfa"/><path d="m284.160156 433.722656h29.996094v78.277344h-29.996094zm0 0" fill="#b7dff7"/><path d="m254.429688 133.003906c0 23.457032-15.617188 43.335938-36.996094 49.785156v25.183594h-29.996094v-52.972656h14.996094c12.128906 0 22-9.867188 22-21.996094s-9.871094-21.996094-22-21.996094-21.996094 9.867188-21.996094 21.996094h-29.996094c0-28.667968 23.328125-51.992187 51.992188-51.992187 28.667968 0 51.996094 23.324219 51.996094 51.992187zm0 0" fill="#25d8f7"/><path d="m187.558594 226.023438h29.753906v29.746093h-29.753906zm0 0" fill="#25d8f7"/><g fill="#00bff0"><path d="m202.433594 226.023438h14.878906v29.746093h-14.878906zm0 0"/><path d="m254.429688 133.003906c0 23.457032-15.617188 43.335938-36.996094 49.785156v25.183594h-15v-52.972656c12.128906 0 22-9.867188 22-21.996094s-9.871094-21.996094-22-21.996094v-29.996093c28.667968 0 51.996094 23.324219 51.996094 51.992187zm0 0"/></g></svg>